<?xml version="1.0" encoding="utf-8"?>
<!-- Generator: Adobe Illustrator 24.0.1, SVG Export Plug-In . SVG Version: 6.00 Build 0)  -->
<svg version="1.1" id="Layer_1" xmlns="http://www.w3.org/2000/svg" xmlns:xlink="http://www.w3.org/1999/xlink" x="0px" y="0px"
	 width="196.3px" height="50px" viewBox="0 0 196.3 50" style="enable-background:new 0 0 196.3 50;" xml:space="preserve">
<style type="text/css">
	.st0{fill:#FF855A;}
	.st1{fill:#56646D;}
</style>
<g>
	<path class="st0" d="M46.3,11.6v26c0,1.4-1.2,2.6-2.6,2.6h-2c-0.7,0-1.4,0.6-1.4,1.4v6.3c0,0-0.1,4.3-4.3,0
		c-2.9-3-5.6-7.7-19.5-7.7H3.4c-1.4,0-2.6-1.2-2.6-2.6v-26c0-1.4,1.2-2.6,2.6-2.6h2c0.7,0,1.4-0.6,1.4-1.4V2.2c0,0,0.1-4.3,4.3,0
		c3,3,5.6,6.8,19.5,6.8h13.1C45.1,8.9,46.3,10.1,46.3,11.6z M37.8,17.9c0-0.8-0.7-1.4-1.4-1.4H10.6c-0.8,0-1.4,0.7-1.4,1.4l0,0
		c0,0.8,0.7,1.4,1.4,1.4h25.8C37.2,19.3,37.8,18.7,37.8,17.9L37.8,17.9z M37.8,25c0-0.8-0.7-1.4-1.4-1.4H10.6
		c-0.8,0-1.4,0.7-1.4,1.4l0,0c0,0.8,0.7,1.4,1.4,1.4h25.8C37.2,26.4,37.8,25.8,37.8,25L37.8,25z M37.8,32.1c0-0.8-0.7-1.4-1.4-1.4
		H10.6c-0.8,0-1.4,0.7-1.4,1.4l0,0c0,0.8,0.7,1.4,1.4,1.4h25.8C37.2,33.5,37.8,32.9,37.8,32.1L37.8,32.1z"/>
	<g>
		<g>
			<path class="st1" d="M57.6,17.5L55.8,23h-1.6l5.6-16.1c0.1-0.3,0.3-0.5,0.6-0.5h1.8c0.3,0,0.5,0.2,0.6,0.5L68.3,23h-1.6l-1.8-5.5
				H57.6z M62,9c-0.1-0.5-0.3-0.9-0.4-1.4h-0.7L60.4,9l-2.4,7.1h6.3L62,9z"/>
			<path class="st1" d="M71.7,20.1c0,1.1,0.6,1.7,1.7,1.7h1.2l0.2,1.2c-0.4,0.1-1.4,0.2-1.9,0.2c-1.6,0-2.7-1-2.7-2.8V6.2h1.5
				L71.7,20.1L71.7,20.1z"/>
			<path class="st1" d="M78.1,20.1c0,1.1,0.6,1.7,1.7,1.7H81l0.2,1.2c-0.4,0.1-1.4,0.2-1.9,0.2c-1.6,0-2.7-1-2.7-2.8V6.2h1.5
				L78.1,20.1L78.1,20.1z"/>
			<path class="st1" d="M90,9.4V23h-3.7V9.4h-4.9v-3H95v3H90z"/>
			<path class="st1" d="M100,10.3c0,0.9-0.1,1.8-0.2,2.5c1.6-1.3,3.3-2,4.9-2c2.1,0,3.3,1.2,3.3,3.3V23h-3.5v-7.8
				c0-1.1-0.3-1.4-1.2-1.4c-1,0-1.9,0.3-3.3,1.1V23h-3.5V6.2h3.6V10.3z"/>
			<path class="st1" d="M113,5.9c0.7,0,1,0.4,1,1v1.3c0,0.7-0.3,1-1,1h-1.6c-0.7,0-1-0.3-1-1V6.9c0-0.7,0.3-1,1-1H113z M110.4,23
				V11.2h3.5V23H110.4z"/>
			<path class="st1" d="M119.6,12.9c1.7-1.4,3.4-2.1,5.1-2.1c2.1,0,3.3,1.2,3.3,3.3V23h-3.5v-7.8c0-1.1-0.3-1.4-1.2-1.4
				c-1,0-1.9,0.4-3.3,1.1V23h-3.5V11.2h2.9L119.6,12.9z"/>
			<path class="st1" d="M140.9,12.9c0.2,0.5,0.3,1,0.3,1.7c0,2.7-1.4,3.8-5.6,3.8c-0.7,0-1.4,0-2.1-0.1c-0.3,0.5-0.2,1.3,0.7,1.4
				l4.3,0.5c2.5,0.3,3.5,1.4,3.5,3.5c0,3.1-1.7,3.8-6.2,3.8c-4.9,0-6.3-0.9-6.3-3.5c0-1.2,0.5-1.9,1.9-2.6c-1.1-1-0.7-3,0.4-3.6
				c-1.3-0.6-1.8-1.6-1.8-3.2c0-2.8,1.4-3.8,5.6-3.8c1.3,0,2.3,0.1,3.1,0.3h3.8l-0.2,1.5L140.9,12.9z M133.6,22.2
				c-0.5,0.4-0.7,0.7-0.7,1.4c0,1.2,0.5,1.4,2.8,1.4c2.3,0,2.9-0.2,2.9-1.3c0-0.9-0.4-0.9-2-1.1L133.6,22.2z M137.8,14.6
				c0-1.2-0.5-1.5-2.3-1.5c-1.8,0-2.3,0.3-2.3,1.5s0.6,1.5,2.3,1.5C137.3,16.2,137.8,15.8,137.8,14.6z"/>
			<path class="st1" d="M146.2,17.9c-2.2-0.7-2.9-1.7-2.9-3.6c0-2.5,1.4-3.4,5-3.4c1.7,0,4,0.2,5.5,0.5l-0.2,2.3c-1.5,0-3.1,0-4.6,0
				c-1.9,0-2.3,0-2.3,0.8c0,0.7,0.4,0.7,1.5,1.1l3,0.8c2,0.6,2.9,1.4,2.9,3.5c0,2.9-1.6,3.6-5.4,3.6c-0.9,0-3,0-5.3-0.4l0.2-2.3
				c0.9,0,2.5,0,4.1,0c2.4,0,3-0.1,3-0.9c0-0.7-0.5-0.7-1.7-1.1L146.2,17.9z"/>
			<path class="st1" d="M162.3,7.8V23h-1.6V7.8h-5.5V6.4h12.6v1.4H162.3z"/>
			<path class="st1" d="M167.3,11.6c1.6-0.2,3.6-0.5,5.6-0.5c2.4,0,3.7,0.9,3.7,3.6V23h-1.2l-0.2-2.1c-1,1-2.9,2.2-5.1,2.2
				c-2,0-3.3-1.1-3.3-3.2v-1.4c0-1.8,1.1-2.8,3-2.8h5.2v-1.2c0-1.4-0.6-2.2-2.5-2.2c-1.4,0-3.4,0.1-5.2,0.3L167.3,11.6z M168.4,19.9
				c0,1.3,0.7,2,2.1,2c1.4,0,3.3-0.7,4.7-2v-2.8h-5c-1.2,0-1.8,0.7-1.8,1.8L168.4,19.9L168.4,19.9z"/>
			<path class="st1" d="M181.7,20.1c0,1.1,0.6,1.7,1.7,1.7h1.2l0.2,1.2c-0.4,0.1-1.4,0.2-1.9,0.2c-1.6,0-2.7-1-2.7-2.8V6.2h1.5
				L181.7,20.1L181.7,20.1z"/>
			<path class="st1" d="M188,17c0.1,0.7,0.1,1.3,0.1,2v4.1h-1.5V6.2h1.5v7.7c0,0.7,0,1.4-0.1,2h1.7l4-4.4h1.8l-3.9,4.3
				c-0.2,0.2-0.5,0.6-0.7,0.7v0c0.2,0.1,0.5,0.5,0.7,0.8L196,23h-1.8l-4.5-6H188z"/>
		</g>
		<g>
			<path class="st1" d="M58.1,33.1c0.9,0,1.6,0.3,2,0.8c0.4,0.5,0.6,1.4,0.6,2.8c0,1.3-0.2,2.2-0.7,2.8c-0.5,0.5-1.4,0.8-2.6,0.8
				c-0.4,0-1.1,0-2-0.1L55,40v-9.6h1.4v3.1C57.1,33.2,57.6,33.1,58.1,33.1z M57.5,38.9c0.7,0,1.2-0.2,1.4-0.5
				c0.2-0.3,0.4-0.9,0.4-1.7c0-0.8-0.1-1.4-0.3-1.7c-0.2-0.3-0.5-0.5-1-0.5c-0.4,0-0.9,0-1.3,0.2l-0.2,0v4.1
				C56.9,38.8,57.3,38.9,57.5,38.9z"/>
			<path class="st1" d="M61.5,33.2H63l1.4,5.5h0.4l1.4-5.5h1.4l-2.6,9.7h-1.4l0.8-2.9h-1.2L61.5,33.2z"/>
			<path class="st1" d="M71.2,40l2.3-9.3h3l2.3,9.3h-1.5l-0.5-2h-3.5l-0.5,2H71.2z M74.6,32l-1.2,4.7h3L75.3,32H74.6z"/>
			<path class="st1" d="M85.3,40h-5.2v-9.2h1.5v7.9h3.7L85.3,40L85.3,40z"/>
			<path class="st1" d="M89.2,31.9c-1.2,0-1.7,0.4-1.7,1.2c0,0.4,0.1,0.7,0.4,0.9s0.9,0.4,1.8,0.7c0.9,0.3,1.6,0.6,2,0.9
				c0.4,0.4,0.6,0.9,0.6,1.7c0,1-0.3,1.7-0.8,2.2c-0.6,0.5-1.3,0.7-2.3,0.7c-0.7,0-1.6-0.1-2.6-0.3l-0.5-0.1l0.1-1.2
				c1.2,0.1,2.1,0.2,2.8,0.2c1.1,0,1.7-0.5,1.7-1.5c0-0.4-0.1-0.7-0.4-0.8s-0.8-0.4-1.7-0.6c-0.9-0.2-1.5-0.5-2-0.9
				c-0.4-0.4-0.7-1-0.7-1.8c0-0.8,0.3-1.5,0.8-1.9c0.6-0.4,1.3-0.7,2.3-0.7c0.7,0,1.5,0.1,2.5,0.2l0.5,0.1l-0.1,1.2
				C90.6,32,89.7,31.9,89.2,31.9z"/>
			<path class="st1" d="M100.1,39c-0.6,0.7-1.5,1.1-2.9,1.1s-2.4-0.4-2.9-1.2c-0.6-0.7-0.8-2-0.8-3.6s0.3-2.8,0.8-3.6
				c0.6-0.8,1.5-1.2,2.9-1.2s2.4,0.4,2.9,1.2c0.6,0.8,0.8,2,0.8,3.6S100.7,38.3,100.1,39z M95.4,38c0.3,0.5,0.9,0.8,1.8,0.8
				s1.4-0.3,1.8-0.8c0.3-0.5,0.5-1.4,0.5-2.6c0-1.2-0.1-2.1-0.5-2.7s-0.9-0.8-1.7-0.8s-1.4,0.3-1.7,0.8c-0.3,0.6-0.5,1.4-0.5,2.7
				C95,36.6,95.1,37.5,95.4,38z"/>
		</g>
	</g>
</g>
</svg>
